<svg xmlns="http://www.w3.org/2000/svg" xmlns:xlink="http://www.w3.org/1999/xlink" width="128" height="128" class="icon" p-id="4732" t="1575517161884" version="1.1" viewBox="0 0 1024 1024"><defs><style type="text/css"/></defs><path fill="#666767" d="M42.666667 917.333333c0 36.266667 27.733333 64 64 64h810.666666c36.266667 0 64-27.733333 64-64V469.333333H42.666667v448z m405.333333-362.666666h128c12.8 0 21.333333 8.533333 21.333333 21.333333s-8.533333 21.333333-21.333333 21.333333h-128c-12.8 0-21.333333-8.533333-21.333333-21.333333s8.533333-21.333333 21.333333-21.333333z m469.333333-298.666667H106.666667c-36.266667 0-64 27.733333-64 64v106.666667h938.666666v-106.666667c0-36.266667-27.733333-64-64-64z m-597.333333-42.666667c12.8 0 21.333333-8.533333 21.333333-21.333333V119.466667c0-19.2 17.066667-34.133333 36.266667-34.133334h268.8c19.2 0 36.266667 14.933333 36.266667 34.133334V192c0 12.8 8.533333 21.333333 21.333333 21.333333s21.333333-8.533333 21.333333-21.333333V119.466667c0-42.666667-36.266667-76.8-78.933333-76.8H377.6c-42.666667 0-78.933333 34.133333-78.933333 76.8V192c0 12.8 8.533333 21.333333 21.333333 21.333333z" p-id="4733"/></svg>